<svg width="22" height="21" viewBox="0 0 22 21" fill="none" xmlns="http://www.w3.org/2000/svg">
<path d="M0.784009 21C0.585118 21 0.381579 20.9296 0.228947 20.7927C-0.0763157 20.5191 -0.0763157 20.0714 0.228947 19.7978L10.6774 10.4285L0.381579 1.20021C0.0763159 0.926576 0.0763159 0.478821 0.381579 0.205209C0.686842 -0.068403 1.18637 -0.068403 1.49163 0.205209L12.3425 9.93099C12.6477 10.2046 12.6477 10.6523 12.3425 10.926L1.339 20.7927C1.18637 20.9295 0.982876 21 0.783986 21L0.784009 21Z" fill="#703EFE"/>
<path d="M10.2126 21C10.0137 21 9.81017 20.9296 9.65754 20.7927C9.35227 20.5191 9.35227 20.0714 9.65754 19.7978L20.106 10.4285L9.81017 1.20021C9.5049 0.926576 9.5049 0.478821 9.81017 0.205209C10.1154 -0.068403 10.615 -0.068403 10.9202 0.205209L21.7711 9.93099C22.0763 10.2046 22.0763 10.6523 21.7711 10.926L10.7676 20.7927C10.615 20.9295 10.4115 21 10.2126 21L10.2126 21Z" fill="#703EFE" fill-opacity="0.5"/>
</svg>
