<svg width="32" height="17" viewBox="0 0 32 17" fill="none" xmlns="http://www.w3.org/2000/svg">
<path d="M1.16994 11.3217L6.33051 16.6006C6.45447 16.7272 6.60196 16.8276 6.76446 16.8962C6.92695 16.9647 7.10125 17 7.27728 17C7.45332 17 7.62761 16.9647 7.79011 16.8962C7.9526 16.8276 8.10009 16.7272 8.22405 16.6006C8.34904 16.4751 8.44824 16.3258 8.51594 16.1613C8.58364 15.9968 8.61849 15.8203 8.61849 15.6421C8.61849 15.4638 8.58364 15.2874 8.51594 15.1228C8.44824 14.9583 8.34904 14.809 8.22405 14.6835L3.47686 9.85011H30.6665C31.0202 9.85011 31.3594 9.70786 31.6094 9.45467C31.8595 9.20147 32 8.85807 32 8.5C32 8.14193 31.8595 7.79852 31.6094 7.54533C31.3594 7.29214 31.0202 7.14989 30.6665 7.14989H3.39685L8.22405 2.26251C8.46046 2.01142 8.59235 1.67783 8.59235 1.33093C8.59235 0.984035 8.46046 0.650447 8.22405 0.399359C8.10009 0.272816 7.9526 0.172375 7.79011 0.103832C7.62761 0.0352891 7.45332 0 7.27728 0C7.10125 0 6.92695 0.0352891 6.76446 0.103832C6.60196 0.172375 6.45447 0.272816 6.33051 0.399359L1.16994 5.59727C0.420791 6.35671 0 7.38616 0 8.4595C0 9.53283 0.420791 10.5623 1.16994 11.3217Z" fill="black"/>
</svg>
